# xmcd CD database file
#
# Track frame offsets:
#	150
#	18655
#	28007
#	44552
#	61680
#	78692
#	91082
#	109180
#	122137
#	137190
#	166650
#
# Disc length: 2268 seconds
#
# Revision: 2
# Processed by: cddbd v1.4PL0 Copyright (c) Steve Scherf et al.
# Submitted via: CDex 1.50Beta7
#
DISCID=8d08da0b
DTITLE=George Strait - George Strait
DYEAR=2000
DGENRE=Country
TTITLE0=If I Can Do Anything Else
TTITLE1=Don't Make Me Come Over There and Love You
TTITLE2=Looking Out My Windows Through Pain
TTITLE3=Go On
TTITLE4=If It's Gonna Rain
TTITLE5=Home Improvement
TTITLE6=The Night's Just Right for Love
TTITLE7=You're Stronger Than Me
TTITLE8=Which Side of the Glass
TTITLE9=She Took the Wind From His Sails
TTITLE10=Bonus Track
EXTD=YEAR: 2000
EXTT0=
EXTT1=
EXTT2=
EXTT3=
EXTT4=
EXTT5=
EXTT6=
EXTT7=
EXTT8=
EXTT9=
EXTT10=
PLAYORDER=
